<?xml version="1.0" standalone="no"?>
<!DOCTYPE svg PUBLIC "-//W3C//DTD SVG 20010904//EN"
 "http://www.w3.org/TR/2001/REC-SVG-20010904/DTD/svg10.dtd">
<svg version="1.0" xmlns="http://www.w3.org/2000/svg"
 width="1024.000000pt" height="1024.000000pt" viewBox="0 0 1024.000000 1024.000000"
 preserveAspectRatio="xMidYMid meet">
<metadata>
Created by potrace 1.14, written by Peter Selinger 2001-2017
</metadata>
<g transform="translate(0.000000,1024.000000) scale(0.100000,-0.100000)"
fill="#000000" stroke="none">
<path d="M3909 8366 c-2 -2 -33 -7 -69 -10 -482 -42 -999 -332 -1284 -719
-143 -194 -156 -222 -450 -952 l-84 -210 -534 -1 c-467 -1 -537 -3 -569 -17
-67 -30 -119 -113 -119 -189 0 -22 25 -139 56 -261 85 -335 90 -340 364 -343
96 -2 186 -3 199 -3 21 -1 16 -8 -41 -65 -165 -163 -268 -375 -296 -607 -15
-122 -11 -1022 4 -1120 27 -167 82 -306 174 -434 28 -39 58 -81 67 -94 15 -21
17 -72 18 -525 2 -484 3 -503 24 -567 27 -85 87 -174 159 -240 60 -54 173
-114 232 -124 19 -3 43 -8 53 -11 24 -7 630 -7 681 0 205 29 376 169 451 371
17 44 19 88 23 378 2 242 7 327 15 327 113 5 4310 0 4315 -4 3 -4 7 -145 7
-314 2 -339 7 -374 68 -482 43 -75 149 -179 223 -218 110 -57 163 -64 504 -64
168 0 326 3 351 6 217 27 405 192 459 402 19 72 20 111 20 564 l0 486 33 40
c126 148 204 335 232 549 6 47 7 971 1 1030 -10 99 -17 137 -41 220 -46 159
-126 294 -248 421 -72 74 -72 74 -42 75 16 0 100 1 185 1 85 0 168 5 185 11
46 15 93 54 114 95 19 38 115 407 124 477 10 78 -41 172 -113 207 -45 22 -49
22 -577 23 l-532 0 -17 45 c-9 25 -22 59 -30 75 -7 17 -31 77 -54 135 -23 58
-48 119 -55 135 -7 17 -48 116 -90 220 -101 251 -149 349 -232 472 -102 153
-209 270 -353 387 -226 185 -576 349 -835 391 -203 33 -218 33 -1446 34 -674
1 -1227 -1 -1230 -3z m2436 -1092 c149 -25 298 -100 428 -216 105 -93 150
-173 279 -495 166 -412 248 -620 248 -626 0 -3 -975 -5 -2166 -5 -1632 0
-2164 3 -2161 11 46 117 299 748 328 817 84 203 204 335 394 433 191 99 119
94 1440 94 904 0 1146 -2 1210 -13z m-3743 -2191 c112 -44 232 -129 355 -251
112 -111 170 -187 221 -289 77 -151 79 -318 6 -394 -25 -26 -156 -82 -219 -93
-107 -19 -542 -28 -640 -13 -111 17 -203 65 -285 148 -105 106 -152 225 -151
386 1 162 48 283 150 388 139 143 374 192 563 118z m5403 17 c178 -48 326
-202 368 -385 29 -127 9 -292 -50 -410 -33 -64 -143 -173 -209 -207 -100 -52
-159 -61 -399 -61 -312 -1 -396 8 -517 54 -95 37 -121 57 -143 111 -49 123 -3
307 119 468 163 217 389 391 564 435 62 16 198 13 267 -5z"/>
</g>
</svg>
